# xmcd
#
# Track frame offsets:
# 150
# 17897
# 36419
# 51071
# 64201
# 81768
# 99978
# 118277
# 136089
# 152229
# 165226
# 182133
# 199802
# 215834
# 228076
# 243289
# 256405
#
# Disc length: 3670 seconds
#
#
# Revision: 0
# Processed by: cddbd v1.5.1PL2 Copyright (c) Steve Scherf et al.
# Submitted via: FreeRIP 2.944 
#
DISCID=e90e5411
DTITLE=Shania Twain - Shania Twain Hits
DYEAR=2005
DGENRE=Country
TTITLE0=01 - Don´t
TTITLE1=Any man of mine
TTITLE2=You´re still the one
TTITLE3=Come on over
TTITLE4=man! I feel like a woman
TTITLE5=forever and foraways
TTITLE6=Forever and for aways
TTITLE7=The woman in me
TTITLE8=Dont be stupid
TTITLE9=up!
TTITLE10=You win my love
TTITLE11=From this moment on
TTITLE12=Love gets me every time
TTITLE13=god aint gonna getcha for that
TTITLE14=Youre got a way
TTITLE15=what made you say that
TTITLE16=from this moment on
EXTD=
EXTT0=
EXTT1=
EXTT2=
EXTT3=
EXTT4=
EXTT5=
EXTT6=
EXTT7=
EXTT8=
EXTT9=
EXTT10=
EXTT11=
EXTT12=
EXTT13=
EXTT14=
EXTT15=
EXTT16=
PLAYORDER=
